<?xml version="1.0" encoding="utf-8"?>
<!-- Generator: Adobe Illustrator 15.1.0, SVG Export Plug-In . SVG Version: 6.00 Build 0)  -->
<!DOCTYPE svg PUBLIC "-//W3C//DTD SVG 1.1//EN" "http://www.w3.org/Graphics/SVG/1.1/DTD/svg11.dtd">
<svg version="1.1" xmlns="http://www.w3.org/2000/svg" xmlns:xlink="http://www.w3.org/1999/xlink" x="0px" y="0px" width="256px"
	 height="256px" viewBox="0 0 256 256" enable-background="new 0 0 256 256" xml:space="preserve">
<g id="Layer_1">
	
		<rect x="1.355" y="57.528" display="none" fill="none" stroke="#000000" stroke-miterlimit="10" width="255.029" height="118.872"/>
	<g display="none">
		
			<line display="inline" fill="none" stroke="#000000" stroke-width="8" stroke-miterlimit="10" x1="256.385" y1="116.962" x2="1.355" y2="116.962"/>
		<g display="inline">
			<polyline fill="none" stroke="#000000" stroke-width="8" stroke-miterlimit="10" points="37.185,116.117 94.515,71.016 
				184.725,71.016 			"/>
			<polyline fill="none" stroke="#000000" stroke-width="8" stroke-miterlimit="10" points="73.017,116.117 130.344,162.912 
				220.557,162.912 			"/>
		</g>
	</g>
	<g display="none">
		<rect x="238.461" y="108.001" display="inline" stroke="#000000" stroke-miterlimit="10" width="17.924" height="17.922"/>
		<rect x="175.76" y="62.055" display="inline" stroke="#000000" stroke-miterlimit="10" width="17.926" height="17.922"/>
		<rect x="211.594" y="153.951" display="inline" stroke="#000000" stroke-miterlimit="10" width="17.924" height="17.922"/>
	</g>
	<g>
		<g>
			<linearGradient id="SVGID_1_" gradientUnits="userSpaceOnUse" x1="193.709" y1="204.2754" x2="193.709" y2="25.7251">
				<stop  offset="0" style="stop-color:#161138"/>
				<stop  offset="0.0187" style="stop-color:#17143C"/>
				<stop  offset="0.1563" style="stop-color:#1D2656"/>
				<stop  offset="0.3004" style="stop-color:#1D346E"/>
				<stop  offset="0.4506" style="stop-color:#193F83"/>
				<stop  offset="0.6097" style="stop-color:#114792"/>
				<stop  offset="0.7836" style="stop-color:#084C9D"/>
				<stop  offset="1" style="stop-color:#034EA2"/>
			</linearGradient>
			<path fill="url(#SVGID_1_)" d="M85.123,120.826l12.233,10.109c0.951,0,1.913,0,2.889,0c2.55,0,4.704,0.891,6.465,2.669
				c1.758,1.778,2.641,3.955,2.641,6.527c0,0.233-0.016,0.461-0.031,0.689l22.108,18.27c3.487-5.562,5.238-11.818,5.238-18.776
				c0-7.254-1.86-13.747-5.56-19.488H85.123z M100.245,103.801c-1.337,0-5.099,0-11.291,0c-6.191,0-12.87,0-20.031,0
				c-2.874,0-6.106,0-9.688,0l-11.716,9.225h76.923C117.654,106.881,109.59,103.801,100.245,103.801z M173.813,58.093h-27.315v8.972
				h21.319v7.752l-21.319,0.014v38.195h27.315V58.093z M37.237,130.935c3.52,0,7.586,0,12.201,0c4.612,0,9.347,0,14.204,0
				c5.957,0,13.164,0,21.604,0l-12.242-10.061l-60.693,0.035C19.318,127.587,27.625,130.935,37.237,130.935z M173.813,149.146
				v-28.32h-27.315v38.44h65.097v7.521h-65.097v9.674H255.76v-27.315H173.813z M100.245,149.146H0.634v27.315h99.611
				c10.076,0,18.666-3.54,25.768-10.625c0.258-0.258,0.501-0.521,0.75-0.781l-21.236-17.452
				C104.009,148.721,102.251,149.241,100.245,149.146z M82.596,85.408h54.799V74.837l-41.408,0.028L82.596,85.408z M11.56,68.746
				C4.396,75.848,0.816,84.438,0.816,94.514c0,6.828,1.685,12.999,5.054,18.513h28.556l11.797-9.225c-2.846,0-5.838,0-8.986,0
				c-2.308,0-4.402-0.911-6.283-2.732c-1.883-1.821-2.822-3.943-2.822-6.374c0-2.549,0.91-4.704,2.731-6.465
				c1.821-1.758,3.944-2.7,6.374-2.823h32.506L93.2,67.065h44.194v-9.154L37.237,58.093C27.281,58.093,18.722,61.644,11.56,68.746z"
				/>
		</g>
		<g>
			<path fill="none" stroke="#000000" stroke-miterlimit="10" d="M85.123,120.826l12.233,10.109c0.951,0,1.913,0,2.889,0
				c2.55,0,4.704,0.891,6.465,2.669c1.758,1.778,2.641,3.955,2.641,6.527c0,0.233-0.016,0.461-0.031,0.689l22.108,18.27
				c3.487-5.562,5.238-11.818,5.238-18.776c0-7.254-1.86-13.747-5.56-19.488H85.123z M100.245,103.801c-1.337,0-5.099,0-11.291,0
				c-6.191,0-12.87,0-20.031,0c-2.874,0-6.106,0-9.688,0l-11.716,9.225h76.923C117.654,106.881,109.59,103.801,100.245,103.801z
				 M173.813,58.093h-27.315v8.972h21.319v7.752l-21.319,0.014v38.195h27.315V58.093z M37.237,130.935c3.52,0,7.586,0,12.201,0
				c4.612,0,9.347,0,14.204,0c5.957,0,13.164,0,21.604,0l-12.242-10.061l-60.693,0.035
				C19.318,127.587,27.625,130.935,37.237,130.935z M173.813,149.146v-28.32h-27.315v38.44h65.097v7.521h-65.097v9.674H255.76
				v-27.315H173.813z M100.245,149.146H0.634v27.315h99.611c10.076,0,18.666-3.54,25.768-10.625c0.258-0.258,0.501-0.521,0.75-0.781
				l-21.236-17.452C104.009,148.721,102.251,149.241,100.245,149.146z M82.596,85.408h54.799V74.837l-41.408,0.028L82.596,85.408z
				 M11.56,68.746C4.396,75.848,0.816,84.438,0.816,94.514c0,6.828,1.685,12.999,5.054,18.513h28.556l11.797-9.225
				c-2.846,0-5.838,0-8.986,0c-2.308,0-4.402-0.911-6.283-2.732c-1.883-1.821-2.822-3.943-2.822-6.374
				c0-2.549,0.91-4.704,2.731-6.465c1.821-1.758,3.944-2.7,6.374-2.823h32.506L93.2,67.065h44.194v-9.154L37.237,58.093
				C27.281,58.093,18.722,61.644,11.56,68.746z"/>
		</g>
	</g>
</g>
<g id="Layer_2" display="none">
	<g display="inline">
		<g>
			<linearGradient id="SVGID_2_" gradientUnits="userSpaceOnUse" x1="-0.3647" y1="115" x2="387.7832" y2="115">
				<stop  offset="0" style="stop-color:#CDC57C"/>
				<stop  offset="0.0526" style="stop-color:#D3C77E"/>
				<stop  offset="0.2552" style="stop-color:#E6D287"/>
				<stop  offset="0.4708" style="stop-color:#F4DA8D"/>
				<stop  offset="0.7065" style="stop-color:#FDDF90"/>
				<stop  offset="1" style="stop-color:#FFE293"/>
			</linearGradient>
			<path fill="url(#SVGID_2_)" d="M85.246,130.935l20.281,16.668c0.411-0.303,0.808-0.641,1.183-1.032
				c1.591-1.663,2.457-3.583,2.609-5.75l-11.963-9.886C93.067,130.935,89.034,130.935,85.246,130.935z M5.87,113.026H0.816v7.89
				l11.495-0.007c-0.25-0.239-0.503-0.471-0.751-0.719C9.309,117.94,7.413,115.552,5.87,113.026z M126.013,114.52
				c1.976,1.988,3.667,4.093,5.093,6.307h15.391v-7.8h-22.056C124.972,113.507,125.498,114.001,126.013,114.52z M173.813,113.026
				v7.8h64.648v-7.8H173.813z M131.428,159.09c-1.309,2.087-2.866,4.074-4.665,5.965l2.108,1.732h17.626v-7.521h-14.856
				L131.428,159.09z M137.395,74.837l9.103-0.006v-7.766h-9.103V74.837z M46.223,103.801c4.76,0,9.098,0,13.012,0l23.361-18.393
				H69.743L46.223,103.801z"/>
		</g>
	</g>
</g>
</svg>
